<svg xmlns="http://www.w3.org/2000/svg" xmlns:xlink="http://www.w3.org/1999/xlink" viewBox="0 0 22 22"><defs><style>.cls-1{fill:#20bf6b;}.cls-2,.cls-3,.cls-4{fill:#fff;}.cls-3{opacity:0.1;}.cls-4{opacity:0.34;}.cls-5{fill:url(#radial-gradient);}.cls-6{fill:url(#radial-gradient-2);}.cls-7{fill:url(#radial-gradient-3);}.cls-8{fill:url(#radial-gradient-4);}.cls-9{fill:url(#radial-gradient-5);}</style><radialGradient id="radial-gradient" cx="11" cy="8.77" r="4.7" gradientUnits="userSpaceOnUse"><stop offset="0" stop-opacity="0.65"/><stop offset="1" stop-opacity="0"/></radialGradient><radialGradient id="radial-gradient-2" cx="8.47" cy="9.05" r="0.22" xlink:href="#radial-gradient"/><radialGradient id="radial-gradient-3" cx="8.32" cy="9.11" r="0.13" xlink:href="#radial-gradient"/><radialGradient id="radial-gradient-4" cx="13.67" cy="5.7" r="0.22" xlink:href="#radial-gradient"/><radialGradient id="radial-gradient-5" cx="13.53" cy="5.76" r="0.13" xlink:href="#radial-gradient"/></defs><title>Asset 4</title><g id="Layer_2" data-name="Layer 2"><g id="Layer_1-2" data-name="Layer 1"><rect class="cls-1" width="22" height="22"/><rect class="cls-2" x="10.63" y="15.6" width="0.74" height="3.29" rx="0.11" ry="0.11"/><ellipse class="cls-3" cx="11" cy="18.94" rx="3.07" ry="1"/><ellipse class="cls-4" cx="11" cy="18.94" rx="1.52" ry="0.5"/><path class="cls-2" d="M11,15.87A6.91,6.91,0,1,1,17.91,9,6.92,6.92,0,0,1,11,15.87ZM11,2.32A6.64,6.64,0,1,0,17.64,9,6.65,6.65,0,0,0,11,2.32Z"/><circle class="cls-2" cx="11" cy="8.96" r="6.43"/><path class="cls-5" d="M15.48,5.48v0s0-.07-.06-.09h0a.1.1,0,0,0-.08-.07h0a0,0,0,0,0-.05,0l-.11,0H15a.32.32,0,0,0-.14,0,.33.33,0,0,0-.21.28V7.65a.06.06,0,0,0,0,0,.29.29,0,0,0,.22.27A.07.07,0,0,1,15,8v.39c0,.1,0,.21,0,.31a.08.08,0,0,1,0,.07h-.39v0a.13.13,0,0,1,0-.06c0-.11,0-.22,0-.33V5.24a1,1,0,0,0-.05-.43s0,0,0-.06,0,0,0-.07,0,0,0,0h0l0,0s0,0,0,0,0,0,0,0l0,0h0a.19.19,0,0,0-.08-.11h0a.07.07,0,0,0,0-.05s0,0,0,0,0,0,0,0l-.05,0s0,0-.05,0h0a.06.06,0,0,0,0,0l-.06,0a.05.05,0,0,0,0,0s0,0-.05,0h0a.22.22,0,0,0-.11,0l-.1,0,0,0h-.05s-.06,0-.09,0H8.7a1.35,1.35,0,0,0-.7.25,1.3,1.3,0,0,0-.52.76.82.82,0,0,0,0,.35.15.15,0,0,0,0,.07V8.37a.13.13,0,0,0,0,.06c0,.11,0,.22,0,.34s0,.05,0,0H7.08S7,8.82,7,8.8H7a.45.45,0,0,0,0-.11V8S7,8,7.06,8a.3.3,0,0,0,.24-.32V5.57a.33.33,0,0,0-.07-.23.23.23,0,0,0-.1-.07h0a1.51,1.51,0,0,0-.3,0,.26.26,0,0,0-.28.28V7.74A.27.27,0,0,0,6.76,8s0,0,0,0c0,.22,0,.44,0,.66a2.62,2.62,0,0,0,0,.28c0,.07,0,.08.09.05a1.22,1.22,0,0,0,.27,0h.2s0,0,.06,0,0,.05,0,.07v3.11a.7.7,0,0,0,.06.32v0s0,.06.06.1l0,0a1,1,0,0,0,.38.24H8.1s0,0,0,0v.36a.31.31,0,0,0,.33.33h.27a2.81,2.81,0,0,0,.41,0s0,0,.06,0a.3.3,0,0,0,.17-.28c0-.06,0-.13,0-.19H12.6v.15a.4.4,0,0,0,.07.24.32.32,0,0,0,.25.12h.53l.12,0h0l.06,0,.08-.05,0,0,0-.05v0s0,0,0,0,0,0,0,0,0-.27,0-.4a0,0,0,0,1,0-.06l.08,0a.65.65,0,0,0,.48-.3.73.73,0,0,0,.13-.43c0-1,0-2,0-3.06V9.08c0-.05,0-.06.07-.06h.56V8s0,0,0,0a.28.28,0,0,0,.25-.21v0c0-.34,0-.69,0-1S15.48,5.88,15.48,5.48ZM9.17,4.26h2.45l0,0H12.8c.06,0,.11.06.11.12a1.22,1.22,0,0,1,0,.27.12.12,0,0,1-.13.12H10.94a.15.15,0,0,0-.09,0H9.23a.14.14,0,0,1-.16-.16V4.48A.2.2,0,0,1,9.17,4.26ZM14,7.93c0,.37,0,.73,0,1.1a.46.46,0,0,1-.08.25,1.43,1.43,0,0,1-.42.39,3.12,3.12,0,0,1-.89.35,6.15,6.15,0,0,1-1.21.14,10.27,10.27,0,0,1-1.24,0,5.43,5.43,0,0,1-1-.17,3.29,3.29,0,0,1-.61-.26,1.71,1.71,0,0,1-.47-.42A.45.45,0,0,1,8,9V8a.25.25,0,0,0,0-.09H8s0-.07,0-.1v-2a.1.1,0,0,0,0-.07H8a.66.66,0,0,0,0-.2.34.34,0,0,1,0-.1.27.27,0,0,1,.27-.18h5.43a.24.24,0,0,1,.25.26,1.2,1.2,0,0,1,0,.19s0,0,0,.07h0s0,0,0,.09V7.74a.19.19,0,0,0,0,.08v0h0S14,7.9,14,7.93Z"/><path class="cls-6" d="M8.38,8.79s0,0,0,0a0,0,0,0,0,0,0l.14.32c0,.06,0,.12.08.17s0,0,0,0l0,0v0C8.53,9.12,8.46,9,8.38,8.79Z"/><path class="cls-7" d="M8.29,9s0,0,0,0,0,0,0,0l.11.27s0,0,0,0,0,0,0,0h0Z"/><path class="cls-8" d="M13.6,5.45s0,0,0,0,0,0,0,0l.16.36a.39.39,0,0,0,.05.14s0,0,.05,0,0,0,0,0Z"/><path class="cls-9" d="M13.58,5.79l-.08-.16s0,0,0,0,0,0,0,0,0,0,0,0,0,0,0,.05,0,0,0,0a.09.09,0,0,1,0,.07.09.09,0,0,0,0,.08h0s.06,0,0-.06A.43.43,0,0,0,13.58,5.79Z"/><path class="cls-1" d="M14.54,6.36a0,0,0,0,0,0,0s0-.06,0-.07h0a.06.06,0,0,0-.06,0h0a.05.05,0,0,0,0,0,.14.14,0,0,0-.09,0h-.1a.21.21,0,0,0-.11,0,.25.25,0,0,0-.16.22V8.11a.23.23,0,0,0,.18.21.05.05,0,0,1,0,.06v.31a2.18,2.18,0,0,0,0,.25s0,0,0,.05h-.31s0,0,0-.05,0-.17,0-.26v0a0,0,0,0,0,0,0V6.26s0,0,0-.07v0a.65.65,0,0,0,0-.34.05.05,0,0,0,0,0s0,0,0,0,0,0,0,0h0a.06.06,0,0,1,0,0s0,0,0,0,0,0,0,0l0,0h0s0-.07-.06-.09h0l0,0s0,0,0,0h0l0,0s0,0,0,0h0s0,0,0,0l0,0,0,0s0,0,0,0h0s-.05,0-.08,0l-.08,0a0,0,0,0,0,0,0h0a.1.1,0,0,0-.07,0H9.19a1.12,1.12,0,0,0-.56.2,1.06,1.06,0,0,0-.41.6.62.62,0,0,0,0,.27.13.13,0,0,0,0,.06V8.64a.07.07,0,0,0,0,0,2.44,2.44,0,0,0,0,.27s0,0,0,0H7.84V9a.19.19,0,0,0,0-.08c0-.17,0-.34,0-.51a.05.05,0,0,1,0,0,.24.24,0,0,0,.19-.26V6.43A.25.25,0,0,0,8,6.25a.28.28,0,0,0-.08-.06h0a.91.91,0,0,0-.23,0,.21.21,0,0,0-.23.22V8.14a.21.21,0,0,0,.19.17s0,0,0,0v.74c0,.06,0,.06.06,0a.74.74,0,0,0,.21,0h.16s0,0,.05,0,0,0,0,.05v2.45a.58.58,0,0,0,.05.26h0s0,.05,0,.08l0,0a.6.6,0,0,0,.3.19h.11s0,0,0,0v.28a.26.26,0,0,0,.27.27h.21a1.74,1.74,0,0,0,.32,0s0,0,.05,0a.26.26,0,0,0,.13-.23.76.76,0,0,1,0-.15h2.53a.24.24,0,0,1,0,.12.31.31,0,0,0,.06.19.24.24,0,0,0,.19.1h.54l0,0,.06,0,0,0,0,0,0,0v-.07c0-.11,0-.21,0-.31s0,0,0-.05l.06,0a.51.51,0,0,0,.38-.24.56.56,0,0,0,.1-.33V9.21c0-.05,0-.05,0-.05h.44V8.35s0,0,0,0a.22.22,0,0,0,.2-.17v0c0-.27,0-.55,0-.82Zm-5-1h2.87a.11.11,0,0,1,.09.09.81.81,0,0,1,0,.22.1.1,0,0,1-.11.09H9.6c-.08,0-.12,0-.12-.13s0-.07,0-.11A.19.19,0,0,1,9.55,5.4Zm3.8,2.9v.87a.33.33,0,0,1-.06.19,1.08,1.08,0,0,1-.33.31,2,2,0,0,1-.71.27,4.34,4.34,0,0,1-.95.12,8.08,8.08,0,0,1-1,0,4,4,0,0,1-.77-.13,2.06,2.06,0,0,1-.48-.21,1,1,0,0,1-.37-.33.33.33,0,0,1-.06-.19V8.35a.15.15,0,0,0,0-.07h0s0,0,0-.08V6.63s0,0,0,0h0a.43.43,0,0,0,0-.16.19.19,0,0,1,0-.08.21.21,0,0,1,.21-.14h4.29a.2.2,0,0,1,.2.21v.15a.07.07,0,0,0,0,0h0s0,0,0,.07V8.14a.15.15,0,0,0,0,.07v0h0A.15.15,0,0,0,13.35,8.3Z"/><path class="cls-1" d="M8.93,9s0,0,0,0,0,0,0,0L9,9.25c0,.05,0,.09.05.14s0,0,0,0,0,0,0,0h0Z"/><path class="cls-1" d="M8.86,9.12s0,0,0,0,0,0,0,0l.09.21h0s0,0,0,0H9Z"/><path class="cls-1" d="M13.05,6.34s0,0,0,0,0,0,0,0l.12.28a.25.25,0,0,0,0,.11s0,0,0,0,0,0,0,0S13.11,6.46,13.05,6.34Z"/><path class="cls-1" d="M13,6.61,13,6.48s0,0,0,0,0,0,0,0,0,0,0,0l0,0s0,0,0,0a.14.14,0,0,1,0,.06.07.07,0,0,0,0,.06h0s.05,0,0,0Z"/></g></g></svg>